rec1_004.mot
nRows=22
nColumns=19

name rec1_004.mot
datacolumns 19
datarows 22
range 15.0061184049 15.0481189742
endheader
time	ground_force_vx	ground_force_vy	ground_force_vz	ground_force_px	ground_force_py	ground_force_pz	1_ground_force_vx	1_ground_force_vy	1_ground_force_vz	1_ground_force_px	1_ground_force_py	1_ground_force_pz	ground_torque_x	ground_torque_y	ground_torque_z	1_ground_torque_x	1_ground_torque_y	1_ground_torque_z	
       15.0061184049	       46.3247265788	      659.8018883009	      -44.9637666838	       -0.7000000000	       -0.0180000000	        0.5600000000	       -0.3215079992	        3.8054606422	        0.3982231858	       -0.7000000000	       -0.0180000000	       -0.5600000000	      294.9002099234	        6.1377231049	      599.0709485489	       -0.6010647947	        0.4514309621	        1.9816249712	
       15.0081187807	       46.9528996256	      663.7851179608	      -45.4527001701	       -0.7000000000	       -0.0180000000	        0.5600000000	       -0.3019641940	        3.8362521189	        0.4177295917	       -0.7000000000	       -0.0180000000	       -0.5600000000	      296.6989646150	        6.1722470232	      601.5176898133	       -0.5941570999	        0.4261320887	        1.8499298526	
       15.0101183563	       47.6026432391	      667.7752335809	      -45.9378903193	       -0.7000000000	       -0.0180000000	        0.5600000000	       -0.2816567268	        3.8668020462	        0.4376352102	       -0.7000000000	       -0.0180000000	       -0.5600000000	      298.5071396757	        6.1995266888	      603.9442268739	       -0.5859197852	        0.4011631302	        1.7071113371	
       15.0121186920	       48.2844597788	      671.7794683622	      -46.4129395472	       -0.7000000000	       -0.0180000000	        0.5600000000	       -0.2613133481	        3.8966727228	        0.4563111502	       -0.7000000000	       -0.0180000000	       -0.5600000000	      300.3283087827	        6.2126706458	      606.3554936456	       -0.5763049473	        0.3783116829	        1.5591630090	
       15.0141184277	       49.0076935283	      675.8052693044	      -46.8700680961	       -0.7000000000	       -0.0180000000	        0.5600000000	       -0.2414601139	        3.9258235271	        0.4723643711	       -0.7000000000	       -0.0180000000	       -0.5600000000	      302.1660583774	        6.2032783817	      608.7563096245	       -0.5654403197	        0.3591709160	        1.4129579948	
       15.0161186834	       49.7799428401	      679.8596341731	      -47.3006033579	       -0.7000000000	       -0.0180000000	        0.5600000000	       -0.2221077930	        3.9544609410	        0.4848767276	       -0.7000000000	       -0.0180000000	       -0.5600000000	      304.0237060607	        6.1619832782	      611.1506887763	       -0.5536311810	        0.3450192988	        1.2757293908	
       15.0181184590	       50.6071016201	      683.9487732802	      -47.6955317627	       -0.7000000000	       -0.0180000000	        0.5600000000	       -0.2028236087	        3.9827648448	        0.4935125341	       -0.7000000000	       -0.0180000000	       -0.5600000000	      305.9041001531	        6.0791405716	      613.5419606471	       -0.5412825974	        0.3367035564	        1.1542082357	
       15.0201188348	       51.4938782048	      688.0781006409	      -48.0460388567	       -0.7000000000	       -0.0180000000	        0.5600000000	       -0.1831284063	        4.0107294239	        0.4984968006	       -0.7000000000	       -0.0180000000	       -0.5600000000	      307.8094951350	        5.9457439502	      615.9333637481	       -0.5288292882	        0.3344868996	        1.0538755421	
       15.0221184904	       52.4444005704	      692.2522223663	      -48.3441193738	       -0.7000000000	       -0.0180000000	        0.5600000000	       -0.1629202100	        4.0381991087	        0.5004157508	       -0.7000000000	       -0.0180000000	       -0.5600000000	      309.7414860340	        5.7541839767	      618.3283713088	       -0.5166831859	        0.3380277514	        0.9786793660	
       15.0241187861	       53.4625305139	      696.4744198801	      -48.5832371938	       -0.7000000000	       -0.0180000000	        0.5600000000	       -0.1426534863	        4.0650510244	        0.4999527875	       -0.7000000000	       -0.0180000000	       -0.5600000000	      311.7008825810	        5.4983562051	      620.7301220986	       -0.5052108145	        0.3465296103	        0.9312122080	
       15.0261185617	       54.5516994911	      700.7456501717	      -48.7588448141	       -0.7000000000	       -0.0180000000	        0.5600000000	       -0.1231819973	        4.0913342232	        0.4976675341	       -0.7000000000	       -0.0180000000	       -0.5600000000	      313.6874649772	        5.1735901364	      623.1400276326	       -0.4947135847	        0.3590244795	        0.9129536758	
       15.0281188174	       55.7143824638	      705.0636659214	      -48.8685928537	       -0.7000000000	       -0.0180000000	        0.5600000000	       -0.1053804790	        4.1171794045	        0.4938951580	       -0.7000000000	       -0.0180000000	       -0.5600000000	      315.6997352495	        4.7767249281	      625.5563790658	       -0.4853938766	        0.3746792364	        0.9241831843	
       15.0301185531	       56.9515701020	      709.4227149346	      -48.9122335377	       -0.7000000000	       -0.0180000000	        0.5600000000	       -0.0897466182	        4.1424915916	        0.4888258218	       -0.7000000000	       -0.0180000000	       -0.5600000000	      317.7347873729	        4.3065670958	      627.9738323006	       -0.4773363288	        0.3929317366	        0.9635266995	
       15.0321189287	       58.2625762510	      713.8138362425	      -48.8914087646	       -0.7000000000	       -0.0180000000	        0.5600000000	       -0.0761421158	        4.1666072535	        0.4826211169	       -0.7000000000	       -0.0180000000	       -0.5600000000	      319.7883585386	        3.7645837514	      630.3840737514	       -0.4704771282	        0.4134706339	        1.0274769427	
       15.0341187045	       59.6452987989	      718.2256127071	      -48.8094216636	       -0.7000000000	       -0.0180000000	        0.5600000000	       -0.0637975349	        4.1881699778	        0.4754353496	       -0.7000000000	       -0.0180000000	       -0.5600000000	      321.8550659581	        3.1545564455	      632.7772595225	       -0.4645622911	        0.4361666591	        1.1104141174	
       15.0361188801	       61.0967886467	      722.6450792177	      -48.6709281449	       -0.7000000000	       -0.0180000000	        0.5600000000	       -0.0515856196	        4.2054236045	        0.4674072466	       -0.7000000000	       -0.0180000000	       -0.5600000000	      323.9287274069	        2.4812231192	      635.1432737432	       -0.4591954896	        0.4609317177	        1.2054504367	
       15.0381186158	       62.6138224038	      727.0582723084	      -48.4815850799	       -0.7000000000	       -0.0180000000	        0.5600000000	       -0.0384284923	        4.2168514572	        0.4586648612	       -0.7000000000	       -0.0180000000	       -0.5600000000	      326.0026065483	        1.7494875385	      637.4719434462	       -0.4540093370	        0.4875246880	        1.3058550636	
       15.0401189914	       64.1932265638	      731.4501693084	      -48.2477371978	       -0.7000000000	       -0.0180000000	        0.5600000000	       -0.0236832224	        4.2217495129	        0.4493143125	       -0.7000000000	       -0.0180000000	       -0.5600000000	      328.0695037975	        0.9644840285	      639.7521892777	       -0.4488358847	        0.5154225957	        1.4063046850	
       15.0421186471	       65.8318827507	      735.8045038926	      -47.9761679418	       -0.7000000000	       -0.0180000000	        0.5600000000	       -0.0073673931	        4.2202796850	        0.4394636221	       -0.7000000000	       -0.0180000000	       -0.5600000000	      330.1218180797	        0.1319913928	      641.9711045019	       -0.4437418022	        0.5437907015	        1.5032091256	
       15.0441189027	       67.5265221008	      740.1042154062	      -47.6739277089	       -0.7000000000	       -0.0180000000	        0.5600000000	        0.0098529342	        4.2130278773	        0.4293561637	       -0.7000000000	       -0.0180000000	       -0.5600000000	      332.1517762632	       -0.7412010110	      644.1141396028	       -0.4389694112	        0.5714747679	        1.5940865347	
       15.0461186785	       69.2735286213	      744.3326188770	      -47.3482189201	       -0.7000000000	       -0.0180000000	        0.5600000000	        0.0268891430	        4.2006775824	        0.4195124465	       -0.7000000000	       -0.0180000000	       -0.5600000000	      334.1518238186	       -1.6475890043	      646.1665720111	       -0.4349425646	        0.5970257434	        1.6768941582	
       15.0481189742	       71.0689477850	      748.4746429251	      -47.0063644741	       -0.7000000000	       -0.0180000000	        0.5600000000	        0.0425282241	        4.1843427955	        0.4107051361	       -0.7000000000	       -0.0180000000	       -0.5600000000	      336.1150184097	       -2.5796178202	      648.1153054296	       -0.4324116599	        0.6188363673	        1.7503079339	
